<!-- Generator: Adobe Illustrator 19.2.1, SVG Export Plug-In  -->
<svg version="1.1"
	 xmlns="http://www.w3.org/2000/svg" xmlns:xlink="http://www.w3.org/1999/xlink" xmlns:a="http://ns.adobe.com/AdobeSVGViewerExtensions/3.0/"
	 x="0px" y="0px" width="427.915px" height="47.955px" viewBox="0 0 427.915 47.955"
	 style="enable-background:new 0 0 427.915 47.955;" xml:space="preserve">
<style type="text/css">
	.st0{fill:#FFFFFF;}
</style>
<defs>
</defs>
<g>
	<path class="st0" d="M8.832,5.917c3.371,10.46,7.088,19.679,11.353,29.655c4.333-9.976,8.046-19.195,11.421-29.655
		c0.827-2.889,9.838-3.027,8.734,0c-5.434,15.687-13.965,37.221-17.476,41.006c-1.509,1.374-3.847,1.374-5.3,0
		C13.993,43.138,5.529,21.603,0.092,5.917C-1.004,2.89,8.01,3.028,8.832,5.917z"/>
	<path class="st0" d="M44.445,4.887C44.445,1.995,46.303,0,49.187,0c2.756,0,4.682,1.995,4.682,4.887
		c0,3.095-1.926,5.021-4.682,5.021C46.303,9.908,44.445,7.983,44.445,4.887z M54.831,46.853c-1.444,0.687-2.961,1.034-4.332,1.034
		c-3.098,0-5.438-1.999-5.438-6.811V19.473c0-3.304,8.121-6.674,8.121-3.441v23.047c0,0.896,0.34,1.444,1.029,1.444
		c0.21,0,0.418-0.07,0.621-0.134C57.719,39.145,57.719,45.408,54.831,46.853z"/>
	<path class="st0" d="M66.791,17.132c2.338,7.428,4.949,13.967,8.668,20.843c3.576-6.875,6.258-13.414,8.531-20.843
		c0.756-2.408,9.498-2.547,8.603,0c-3.925,11.421-11.908,27.588-14.587,29.927c-1.375,1.103-3.853,1.103-5.164,0
		c-2.68-2.339-10.667-18.506-14.582-29.927C57.364,14.585,66.101,14.724,66.791,17.132z"/>
	<path class="st0" d="M108.661,34.746c-2.066,0-4.269-0.139-6.331-0.416c0.966,4.885,4.886,7.224,9.974,7.224
		c3.1,0,6.611-0.892,10.185-2.475c3.095-1.445,3.095,4.198,0.621,5.779c-3.17,1.995-7.293,3.029-11.419,3.029
		c-8.738,0-17.483-4.886-17.483-16.581c0-9.841,5.648-16.241,16.449-16.241c10.592,0,15.755,5.023,15.755,14.108
		C126.412,32.406,117.674,34.746,108.661,34.746z M108.184,28.826c6.12,0,10.867-0.892,10.867-1.925c0-3.368-2.755-5.64-8.049-5.64
		c-4.614,0-7.706,1.996-8.532,7.292C104.464,28.761,106.388,28.826,108.184,28.826z"/>
	<path class="st0" d="M170.994,45.684c-8.804,4.884-18.44,1.789-18.44-10.803v-11.14h-4.193c-2.753,0-2.753-7.093,0-7.093h4.193
		l1.376-8.735c0.347-1.996,6.746-1.996,6.746,0.619v8.117h10.796c2.759,0,2.759,7.093,0,7.093h-10.796v11.418
		c0,6.466,3.851,7.702,10.318,3.986C173.267,37.91,173.331,44.239,170.994,45.684z"/>
	<path class="st0" d="M212.655,46.715c-1.86,0.689-3.65,1.173-5.365,1.173c-2.757,0-5.027-1.379-5.918-5.097
		c-3.372,3.375-7.705,5.097-12.385,5.097c-6.878,0-11.079-4.338-11.079-11.488V19.402c0-3.233,7.985-6.672,7.985-3.44v17.613
		c0,5.023,2.269,7.293,6.395,7.293c2.755,0,5.712-1.304,8.673-4.679V17.132c0-2.751,8.045-2.751,8.045,0v20.57
		c0,1.994,0.689,2.959,2.065,2.959c0.483,0,0.964-0.139,1.586-0.412C215.404,38.939,215.545,45.408,212.655,46.715z"/>
	<path class="st0" d="M259.848,9.838c-2.818-1.648-5.157-2.409-6.941-2.409c-2.892,0-4.409,2.204-4.409,6.54v2.679h8.604
		c3.228,0-0.28,7.093-3.508,7.093h-5.095v22.148c0,2.755-8.112,2.755-8.112,0V23.741h-4.203c-2.753,0-2.753-7.093,0-7.093h4.203
		v-2.89c0-8.872,5.085-13.001,11.348-13.001c2.612,0,5.368,0.758,8.113,2.408C262.26,4.541,262.119,11.147,259.848,9.838z"/>
	<path class="st0" d="M298.104,46.715c-1.862,0.689-3.647,1.173-5.362,1.173c-2.758,0-5.032-1.379-5.921-5.097
		c-3.369,3.375-7.705,5.097-12.388,5.097c-6.875,0-11.074-4.338-11.074-11.488V19.402c0-3.233,7.98-6.672,7.98-3.44v17.613
		c0,5.023,2.275,7.293,6.397,7.293c2.758,0,5.715-1.304,8.669-4.679V17.132c0-2.751,8.051-2.751,8.051,0v20.57
		c0,1.994,0.687,2.959,2.065,2.959c0.484,0,0.962-0.139,1.582-0.412C300.859,38.939,300.994,45.408,298.104,46.715z"/>
	<path class="st0" d="M324.857,45.684c-8.799,4.884-18.431,1.789-18.431-10.803v-11.14h-4.198c-2.754,0-2.754-7.093,0-7.093h4.198
		l1.369-8.735c0.344-1.996,6.744-1.996,6.744,0.619v8.117h10.804c2.75,0,2.75,7.093,0,7.093h-10.804v11.418
		c0,6.466,3.854,7.702,10.318,3.986C327.131,37.91,327.193,44.239,324.857,45.684z"/>
	<path class="st0" d="M366.523,46.715c-1.862,0.689-3.648,1.173-5.37,1.173c-2.754,0-5.02-1.379-5.918-5.097
		c-3.37,3.375-7.706,5.097-12.386,5.097c-6.878,0-11.07-4.338-11.07-11.488V19.402c0-3.233,7.978-6.672,7.978-3.44v17.613
		c0,5.023,2.267,7.293,6.392,7.293c2.756,0,5.715-1.304,8.671-4.679V17.132c0-2.751,8.054-2.751,8.054,0v20.57
		c0,1.994,0.691,2.959,2.063,2.959c0.477,0,0.963-0.139,1.586-0.412C369.271,38.939,369.405,45.408,366.523,46.715z"/>
	<path class="st0" d="M391.004,23.117c-3.919,0.207-7.223,1.24-10.388,4.61v18.162c0,2.755-8.115,2.755-8.115,0V17.272
		c0-2.618,6.533-2.548,7.02-0.623l1.026,4.195c2.616-3.23,6.61-5.295,11.969-5.433C395.066,15.345,393.41,23.046,391.004,23.117z"/>
	<path class="st0" d="M395.444,31.58c0-10.387,5.982-16.515,16.24-16.515c10.245,0,16.231,6.127,16.231,16.515
		c0,10.319-5.987,16.373-16.231,16.373C401.426,47.953,395.444,41.898,395.444,31.58z M419.863,31.58
		c0-6.742-3.024-10.456-8.178-10.456c-5.164,0-8.189,3.714-8.189,10.456c0,6.606,3.025,10.319,8.189,10.319
		C416.839,41.898,419.863,38.186,419.863,31.58z"/>
</g>
</svg>